<?xml version="1.0" standalone="no"?><!DOCTYPE svg PUBLIC "-//W3C//DTD SVG 1.1//EN" "http://www.w3.org/Graphics/SVG/1.1/DTD/svg11.dtd"><svg t="1504256500327" class="icon" style="" viewBox="0 0 1024 1024" version="1.1" xmlns="http://www.w3.org/2000/svg" p-id="2390" xmlns:xlink="http://www.w3.org/1999/xlink" width="200" height="200"><defs><style type="text/css">@font-face { font-family: uc-nexus-iconfont; src: url("chrome-extension://pogijhnlcfmcppgimcaccdkmbedjkmhi/res/font_9qmmi8b8jsxxbt9.woff") format("woff"), url("chrome-extension://pogijhnlcfmcppgimcaccdkmbedjkmhi/res/font_9qmmi8b8jsxxbt9.ttf") format("truetype"); }
</style></defs><path d="M780.8 341.333333c-8.533333-8.533333-21.333333-8.533333-29.866667 0l-315.733333 315.733334-170.666667-170.666667c-8.533333-8.533333-21.333333-8.533333-29.866666 0-8.533333 8.533333-8.533333 21.333333 0 29.866667l179.2 179.2s4.266667 0 4.266666 4.266666c0 0 0 4.266667 4.266667 4.266667 8.533333 8.533333 21.333333 8.533333 29.866667 0l332.8-332.8c4.266667-8.533333 4.266667-25.6-4.266667-29.866667z" fill="#7D7E7F" p-id="2391"></path><path d="M512 42.666667c260.266667 0 469.333333 209.066667 469.333333 469.333333s-209.066667 469.333333-469.333333 469.333333S42.666667 772.266667 42.666667 512 251.733333 42.666667 512 42.666667m0-42.666667C230.4 0 0 230.4 0 512s230.4 512 512 512 512-230.4 512-512S793.6 0 512 0z" fill="#7C7C7E" p-id="2392"></path></svg>