<?xml version="1.0" standalone="no"?><!DOCTYPE svg PUBLIC "-//W3C//DTD SVG 1.1//EN" "http://www.w3.org/Graphics/SVG/1.1/DTD/svg11.dtd"><svg t="1504256566836" class="icon" style="" viewBox="0 0 1024 1024" version="1.1" xmlns="http://www.w3.org/2000/svg" p-id="6005" xmlns:xlink="http://www.w3.org/1999/xlink" width="200" height="200"><defs><style type="text/css">@font-face { font-family: uc-nexus-iconfont; src: url("chrome-extension://pogijhnlcfmcppgimcaccdkmbedjkmhi/res/font_9qmmi8b8jsxxbt9.woff") format("woff"), url("chrome-extension://pogijhnlcfmcppgimcaccdkmbedjkmhi/res/font_9qmmi8b8jsxxbt9.ttf") format("truetype"); }
</style></defs><path d="M505.148739 16.445242c-277.100263 0-502.563091 225.462828-502.563091 502.564098 0 277.095229 225.525254 502.559064 502.563091 502.559064 277.03381 0 502.559064-225.463835 502.559064-502.559064C1007.707803 241.90807 782.243968 16.445242 505.148739 16.445242L505.148739 16.445242zM505.148739 973.702711c-250.778613 0-454.692364-203.981212-454.692364-454.693371 0-250.716187 203.913751-454.693371 454.692364-454.693371 250.711153 0 454.694378 203.976177 454.694378 454.693371C959.843117 769.7215 755.927352 973.702711 505.148739 973.702711L505.148739 973.702711zM505.148739 973.702711" p-id="6006"></path><path d="M708.181477 349.645398l-33.861109-33.797676L505.211165 485.148231 335.909649 315.847722l-33.861109 33.859095 169.301516 169.302523-169.114238 169.363942 33.860102 33.793648 169.114238-169.301516 169.172636 169.175657 33.861109-33.861109L539.067239 519.00934 708.181477 349.645398zM708.181477 349.645398" p-id="6007"></path></svg>